<svg xmlns="http://www.w3.org/2000/svg" viewBox="0 0 512 512">
  <defs>
    <linearGradient id="bg" x1="0%" y1="0%" x2="100%" y2="100%">
      <stop offset="0%" style="stop-color:#2563eb"/>
      <stop offset="100%" style="stop-color:#1d4ed8"/>
    </linearGradient>
  </defs>
  <rect width="512" height="512" rx="96" fill="url(#bg)"/>
  <g transform="translate(96, 96)">
    <!-- D letter stylized as deployment flow -->
    <path d="M60 40 L60 280 L160 280 C240 280 280 220 280 160 C280 100 240 40 160 40 L60 40 Z M100 80 L150 80 C200 80 240 110 240 160 C240 210 200 240 150 240 L100 240 L100 80 Z" fill="white"/>
    <!-- Arrow indicating flow/deployment -->
    <path d="M180 140 L260 160 L180 180 L180 165 L140 165 L140 155 L180 155 Z" fill="white" opacity="0.9"/>
  </g>
</svg>
